<svg id="visual" viewBox="0 0 960 540" width="960" height="540" xmlns="http://www.w3.org/2000/svg" xmlns:xlink="http://www.w3.org/1999/xlink" version="1.1"><rect width="960" height="540" fill="#CCCCCC"></rect><g><g transform="translate(261 137)"><path d="M63.5 -19.5C72.5 6.9 63.1 40.5 39.7 58.3C16.3 76.2 -21.1 78.4 -46.2 60.9C-71.2 43.3 -83.8 6 -74.1 -21.5C-64.3 -49.1 -32.1 -66.8 -2.4 -66C27.3 -65.3 54.6 -45.9 63.5 -19.5Z" fill="none" stroke="#b2b4b6" stroke-width="20"></path></g><g transform="translate(688 177)"><path d="M61.7 -18C70.1 5.8 60.3 37.6 40.1 51.4C20 65.1 -10.6 60.8 -32.5 44.8C-54.5 28.9 -67.9 1.2 -61.1 -20.4C-54.2 -42.1 -27.1 -57.7 -0.2 -57.6C26.7 -57.6 53.3 -41.8 61.7 -18Z" fill="none" stroke="#b2b4b6" stroke-width="20"></path></g><g transform="translate(451 334)"><path d="M73.6 -23.5C82 1.7 66 35.3 40.7 52.9C15.5 70.5 -19 72.1 -39.9 56.6C-60.8 41 -67.9 8.3 -59 -17.7C-50.1 -43.7 -25 -63 3.8 -64.3C32.6 -65.5 65.3 -48.7 73.6 -23.5Z" stroke="#b2b4b6" fill="none" stroke-width="20"></path></g><g transform="translate(199 380)"><path d="M57 -17.4C65.1 6.4 56.8 36.6 35.5 53C14.2 69.4 -20.1 72.1 -42.2 56.4C-64.4 40.7 -74.4 6.6 -65.3 -18.4C-56.3 -43.5 -28.1 -59.5 -1.8 -58.9C24.4 -58.3 48.9 -41.1 57 -17.4Z" stroke="#b2b4b6" fill="none" stroke-width="20"></path></g><g transform="translate(475 60)"><path d="M56.5 -17.2C63.8 4.1 53.7 32.1 35 45C16.2 57.9 -11.3 55.7 -29 42.3C-46.6 28.9 -54.4 4.3 -47.9 -15.8C-41.5 -36 -20.7 -51.8 1.9 -52.5C24.6 -53.1 49.2 -38.5 56.5 -17.2Z" stroke="#b2b4b6" fill="none" stroke-width="20"></path></g><g transform="translate(920 17)"><path d="M62.9 -20.8C72.8 10 66 45.8 43.4 62.9C20.9 80.1 -17.5 78.5 -40.5 60.7C-63.4 42.9 -70.8 8.7 -61.5 -21.2C-52.1 -51.2 -26.1 -77 0.2 -77C26.5 -77.1 53 -51.5 62.9 -20.8Z" stroke="#b2b4b6" fill="none" stroke-width="20"></path></g><g transform="translate(833 500)"><path d="M72.1 -21.2C81.7 6.3 69.8 43 45 60.7C20.2 78.4 -17.5 77.2 -43.3 58.7C-69 40.2 -82.9 4.4 -73.7 -22.5C-64.5 -49.4 -32.2 -67.3 -0.5 -67.1C31.2 -67 62.5 -48.7 72.1 -21.2Z" stroke="#b2b4b6" fill="none" stroke-width="20"></path></g><g transform="translate(944 248)"><path d="M61.8 -21.8C69.1 2.3 56.4 31.2 35.7 45.3C15.1 59.3 -13.4 58.6 -32.2 44.8C-50.9 31.1 -59.9 4.4 -52.9 -19.4C-45.9 -43.1 -22.9 -63.9 2.2 -64.6C27.2 -65.3 54.5 -46 61.8 -21.8Z" stroke="#b2b4b6" fill="none" stroke-width="20"></path></g></g></svg>