<svg id="visual" viewBox="0 0 900 600" width="900" height="600" xmlns="http://www.w3.org/2000/svg" xmlns:xlink="http://www.w3.org/1999/xlink" version="1.1"><path d="M0 43L13.7 51C27.3 59 54.7 75 82 84C109.3 93 136.7 95 163.8 92C191 89 218 81 245.2 79C272.3 77 299.7 81 327 85C354.3 89 381.7 93 409 87C436.3 81 463.7 65 491 55C518.3 45 545.7 41 573 40C600.3 39 627.7 41 654.8 42C682 43 709 43 736.2 46C763.3 49 790.7 55 818 62C845.3 69 872.7 77 886.3 81L900 85L900 0L886.3 0C872.7 0 845.3 0 818 0C790.7 0 763.3 0 736.2 0C709 0 682 0 654.8 0C627.7 0 600.3 0 573 0C545.7 0 518.3 0 491 0C463.7 0 436.3 0 409 0C381.7 0 354.3 0 327 0C299.7 0 272.3 0 245.2 0C218 0 191 0 163.8 0C136.7 0 109.3 0 82 0C54.7 0 27.3 0 13.7 0L0 0Z" fill="#d7e3ff"></path><path d="M0 175L13.7 178C27.3 181 54.7 187 82 194C109.3 201 136.7 209 163.8 212C191 215 218 213 245.2 223C272.3 233 299.7 255 327 254C354.3 253 381.7 229 409 213C436.3 197 463.7 189 491 205C518.3 221 545.7 261 573 284C600.3 307 627.7 313 654.8 289C682 265 709 211 736.2 183C763.3 155 790.7 153 818 160C845.3 167 872.7 183 886.3 191L900 199L900 83L886.3 79C872.7 75 845.3 67 818 60C790.7 53 763.3 47 736.2 44C709 41 682 41 654.8 40C627.7 39 600.3 37 573 38C545.7 39 518.3 43 491 53C463.7 63 436.3 79 409 85C381.7 91 354.3 87 327 83C299.7 79 272.3 75 245.2 77C218 79 191 87 163.8 90C136.7 93 109.3 91 82 82C54.7 73 27.3 57 13.7 49L0 41Z" fill="#cbddff"></path><path d="M0 409L13.7 401C27.3 393 54.7 377 82 371C109.3 365 136.7 369 163.8 391C191 413 218 453 245.2 454C272.3 455 299.7 417 327 416C354.3 415 381.7 451 409 455C436.3 459 463.7 431 491 428C518.3 425 545.7 447 573 458C600.3 469 627.7 469 654.8 449C682 429 709 389 736.2 381C763.3 373 790.7 397 818 402C845.3 407 872.7 393 886.3 386L900 379L900 197L886.3 189C872.7 181 845.3 165 818 158C790.7 151 763.3 153 736.2 181C709 209 682 263 654.8 287C627.7 311 600.3 305 573 282C545.7 259 518.3 219 491 203C463.7 187 436.3 195 409 211C381.7 227 354.3 251 327 252C299.7 253 272.3 231 245.2 221C218 211 191 213 163.8 210C136.7 207 109.3 199 82 192C54.7 185 27.3 179 13.7 176L0 173Z" fill="#bdd7ff"></path><path d="M0 493L13.7 486C27.3 479 54.7 465 82 458C109.3 451 136.7 451 163.8 465C191 479 218 507 245.2 510C272.3 513 299.7 491 327 490C354.3 489 381.7 509 409 520C436.3 531 463.7 533 491 532C518.3 531 545.7 527 573 524C600.3 521 627.7 519 654.8 506C682 493 709 469 736.2 462C763.3 455 790.7 465 818 466C845.3 467 872.7 459 886.3 455L900 451L900 377L886.3 384C872.7 391 845.3 405 818 400C790.7 395 763.3 371 736.2 379C709 387 682 427 654.8 447C627.7 467 600.3 467 573 456C545.7 445 518.3 423 491 426C463.7 429 436.3 457 409 453C381.7 449 354.3 413 327 414C299.7 415 272.3 453 245.2 452C218 451 191 411 163.8 389C136.7 367 109.3 363 82 369C54.7 375 27.3 391 13.7 399L0 407Z" fill="#afceff"></path><path d="M0 601L13.7 601C27.3 601 54.7 601 82 601C109.3 601 136.7 601 163.8 601C191 601 218 601 245.2 601C272.3 601 299.7 601 327 601C354.3 601 381.7 601 409 601C436.3 601 463.7 601 491 601C518.3 601 545.7 601 573 601C600.3 601 627.7 601 654.8 601C682 601 709 601 736.2 601C763.3 601 790.7 601 818 601C845.3 601 872.7 601 886.3 601L900 601L900 449L886.3 453C872.7 457 845.3 465 818 464C790.7 463 763.3 453 736.2 460C709 467 682 491 654.8 504C627.7 517 600.3 519 573 522C545.7 525 518.3 529 491 530C463.7 531 436.3 529 409 518C381.7 507 354.3 487 327 488C299.7 489 272.3 511 245.2 508C218 505 191 477 163.8 463C136.7 449 109.3 449 82 456C54.7 463 27.3 477 13.7 484L0 491Z" fill="#a0c5ff"></path></svg>