<svg id="visual" viewBox="0 0 900 600" width="900" height="600" xmlns="http://www.w3.org/2000/svg" xmlns:xlink="http://www.w3.org/1999/xlink" version="1.1"><rect x="0" y="0" width="900" height="600" fill="#FFFFFF"></rect><g fill="#A7233A"><circle r="63" cx="891" cy="29"></circle><circle r="40" cx="16" cy="481"></circle><circle r="50" cx="603" cy="268"></circle><circle r="47" cx="414" cy="555"></circle><circle r="54" cx="508" cy="434"></circle><circle r="56" cx="681" cy="415"></circle><circle r="53" cx="372" cy="124"></circle><circle r="42" cx="898" cy="521"></circle><circle r="44" cx="67" cy="327"></circle><circle r="53" cx="443" cy="291"></circle><circle r="39" cx="114" cy="79"></circle><circle r="57" cx="279" cy="356"></circle><circle r="39" cx="237" cy="533"></circle><circle r="41" cx="777" cy="124"></circle><circle r="45" cx="669" cy="541"></circle><circle r="60" cx="811" cy="335"></circle><circle r="42" cx="553" cy="58"></circle><circle r="56" cx="116" cy="598"></circle><circle r="40" cx="254" cy="57"></circle><circle r="49" cx="202" cy="254"></circle><circle r="61" cx="21" cy="178"></circle><circle r="53" cx="895" cy="200"></circle><circle r="51" cx="553" cy="592"></circle><circle r="45" cx="685" cy="10"></circle><circle r="61" cx="162" cy="422"></circle><circle r="50" cx="785" cy="593"></circle></g></svg>