<svg id="visual" viewBox="0 0 960 540" width="960" height="540" xmlns="http://www.w3.org/2000/svg" xmlns:xlink="http://www.w3.org/1999/xlink" version="1.1"><rect width="960" height="540" fill="#FF0066"></rect><g><g transform="translate(719 533)"><path d="M74.5 -25.2C83.4 3.2 68.4 38.4 42 57.6C15.6 76.7 -22.3 79.8 -48.5 62C-74.7 44.1 -89.1 5.2 -79.1 -24.8C-69 -54.7 -34.5 -75.9 -0.9 -75.6C32.8 -75.3 65.6 -53.6 74.5 -25.2Z" stroke="#BB004B" fill="none" stroke-width="20"></path></g><g transform="translate(62 424)"><path d="M49.1 -15.6C56 5.3 48.7 31.2 32.2 42.8C15.7 54.4 -10 51.8 -27.5 38.8C-45 25.9 -54.4 2.6 -48.4 -17C-42.5 -36.5 -21.2 -52.4 -0.1 -52.3C21.1 -52.3 42.2 -36.4 49.1 -15.6Z" stroke="#BB004B" fill="none" stroke-width="20"></path></g><g transform="translate(662 86)"><path d="M47 -13.9C54.1 6.8 48.6 33 30.9 46.8C13.3 60.6 -16.4 62.1 -34.5 48.7C-52.6 35.2 -59.1 7 -51.4 -14.5C-43.7 -35.9 -21.8 -50.5 -1 -50.2C19.9 -49.8 39.8 -34.6 47 -13.9Z" stroke="#BB004B" fill="none" stroke-width="20"></path></g><g transform="translate(8 126)"><path d="M70.1 -23C79.5 6 67.8 41.6 41.7 61.6C15.5 81.5 -25 85.9 -51.9 67.3C-78.9 48.7 -92.2 7.2 -81.3 -24C-70.4 -55.2 -35.2 -76 -2.4 -75.2C30.4 -74.5 60.8 -52 70.1 -23Z" stroke="#BB004B" fill="none" stroke-width="20"></path></g><g transform="translate(219 242)"><path d="M45.6 -15.6C51.4 3 43.1 25.3 26.8 37.2C10.6 49 -13.4 50.3 -30.4 38.7C-47.4 27.1 -57.2 2.7 -51 -16.5C-44.7 -35.7 -22.4 -49.6 -1.2 -49.2C19.9 -48.8 39.9 -34.1 45.6 -15.6Z" stroke="#BB004B" fill="none" stroke-width="20"></path></g><g transform="translate(384 53)"><path d="M69 -20.9C78.5 6.7 67.6 42.4 44.2 59C20.8 75.5 -15.2 72.9 -41 54.6C-66.9 36.2 -82.7 2.1 -74.1 -24.2C-65.6 -50.5 -32.8 -69 -1.5 -68.5C29.8 -68 59.6 -48.5 69 -20.9Z" stroke="#BB004B" fill="none" stroke-width="20"></path></g><g transform="translate(496 367)"><path d="M55.8 -19.3C62.6 2.9 51.8 29.7 32.3 43.6C12.8 57.6 -15.4 58.8 -33.9 45.6C-52.5 32.4 -61.5 4.7 -54.2 -18C-46.9 -40.8 -23.5 -58.7 0.5 -58.9C24.5 -59 48.9 -41.5 55.8 -19.3Z" stroke="#BB004B" fill="none" stroke-width="20"></path></g></g></svg>